<svg xmlns="http://www.w3.org/2000/svg" xmlns:xlink="http://www.w3.org/1999/xlink" width="1573pt" height="295pt" viewBox="0.00 0.00 1572.80 295.00">
<g id="graph0" class="graph" transform="scale(1 1) rotate(0) translate(4 291)">
<title>MusicLSTM</title>
<polygon fill="#f0eee6" stroke="none" points="-4,4 -4,-291 1568.8,-291 1568.8,4 -4,4"/>
<g id="clust1" class="cluster">
<title>cluster_input</title>
<polygon fill="#f0eee6" stroke="#004aad" stroke-dasharray="5,2" points="0,-23 0,-272 159.86,-272 159.86,-23 0,-23"/>
<text text-anchor="start" x="8" y="-256.4" font-family="Times,serif" font-weight="bold" font-size="14.00">Input Layer</text>
<text text-anchor="start" x="80.73" y="-256.4" font-family="Times,serif" font-size="14.00">(88 features)</text>
</g>
<g id="clust2" class="cluster">
<title>cluster_lstm1</title>
<polygon fill="#f0eee6" stroke="#ffa366" points="179.86,-23 179.86,-279 347.52,-279 347.52,-23 179.86,-23"/>
<text text-anchor="start" x="187.86" y="-263.4" font-family="Times,serif" font-weight="bold" font-size="14.00">LSTM Layer-1</text>
<text text-anchor="start" x="278.47" y="-263.4" font-family="Times,serif" font-size="14.00">(512 units)</text>
</g>
<g id="clust3" class="cluster">
<title>cluster_lstm2</title>
<polygon fill="#f0eee6" stroke="#ff884d" points="367.52,-23 367.52,-279 535.17,-279 535.17,-23 367.52,-23"/>
<text text-anchor="start" x="375.52" y="-263.4" font-family="Times,serif" font-weight="bold" font-size="14.00">LSTM Layer-2</text>
<text text-anchor="start" x="466.12" y="-263.4" font-family="Times,serif" font-size="14.00">(512 units)</text>
</g>
<g id="clust4" class="cluster">
<title>cluster_lstm3</title>
<polygon fill="#f0eee6" stroke="#ff6633" points="555.17,-23 555.17,-279 722.83,-279 722.83,-23 555.17,-23"/>
<text text-anchor="start" x="563.17" y="-263.4" font-family="Times,serif" font-weight="bold" font-size="14.00">LSTM Layer-3</text>
<text text-anchor="start" x="653.78" y="-263.4" font-family="Times,serif" font-size="14.00">(512 units)</text>
</g>
<g id="clust5" class="cluster">
<title>cluster_lstm4</title>
<polygon fill="#f0eee6" stroke="#ff4400" points="742.83,-23 742.83,-279 910.48,-279 910.48,-23 742.83,-23"/>
<text text-anchor="start" x="750.83" y="-263.4" font-family="Times,serif" font-weight="bold" font-size="14.00">LSTM Layer-4</text>
<text text-anchor="start" x="841.43" y="-263.4" font-family="Times,serif" font-size="14.00">(512 units)</text>
</g>
<g id="clust6" class="cluster">
<title>cluster_dropout</title>
<polygon fill="#f0eee6" stroke="#2e8b57" stroke-dasharray="5,2" points="930.48,-71 930.48,-188 1036.31,-188 1036.31,-71 930.48,-71"/>
<text text-anchor="start" x="938.48" y="-172.4" font-family="Times,serif" font-weight="bold" font-size="14.00">Dropout Layer</text>
</g>
<g id="clust7" class="cluster">
<title>cluster_fc</title>
<polygon fill="#f0eee6" stroke="#1e56a0" stroke-dasharray="5,2" points="1056.31,-89 1056.31,-170 1264.79,-170 1264.79,-89 1056.31,-89"/>
<text text-anchor="start" x="1064.31" y="-154.4" font-family="Times,serif" font-weight="bold" font-size="14.00">Fully Connected Layer</text>
<text text-anchor="start" x="1201.96" y="-154.4" font-family="Times,serif" font-size="14.00">(512→88)</text>
</g>
<g id="clust8" class="cluster">
<title>cluster_output</title>
<polygon fill="#f0eee6" stroke="#002b5c" stroke-dasharray="5,2" points="1284.79,-8 1284.79,-257 1564.8,-257 1564.8,-8 1284.79,-8"/>
<text text-anchor="start" x="1292.79" y="-241.4" font-family="Times,serif" font-weight="bold" font-size="14.00">Output Layer</text>
<text text-anchor="start" x="1375.62" y="-241.4" font-family="Times,serif" font-size="14.00">(88 features)Sigmoid Activation</text>
</g>
<!-- input1 -->
<g id="node1" class="node">
<title>input1</title>
<ellipse fill="#c7e1ff" stroke="#c7e1ff" cx="79.43" cy="-49" rx="18" ry="18"/>
<text text-anchor="start" x="76.43" y="-46.4" font-family="Helvetica,sans-Serif" font-weight="bold" font-size="12.00">1</text>
</g>
<!-- lstm1_1 -->
<g id="node5" class="node">
<title>lstm1_1</title>
<ellipse fill="#ffb380" stroke="#ffb380" cx="263.19" cy="-49" rx="18" ry="18"/>
<text text-anchor="start" x="260.19" y="-46.4" font-family="Helvetica,sans-Serif" font-weight="bold" font-size="12.00">1</text>
</g>
<!-- input1&#45;&gt;lstm1_1 -->
<g id="edge1" class="edge">
<title>input1-&gt;lstm1_1</title>
<path fill="none" stroke="#004aad" stroke-width="2" d="M97.86,-49C128.8,-49 193.67,-49 232,-49"/>
<polygon fill="#004aad" stroke="#004aad" stroke-width="2" points="231.79,-52.5 241.79,-49 231.79,-45.5 231.79,-52.5"/>
</g>
<!-- lstm1_2 -->
<g id="node6" class="node">
<title>lstm1_2</title>
<ellipse fill="#ffb380" stroke="#ffb380" cx="263.19" cy="-103" rx="18" ry="18"/>
<text text-anchor="start" x="260.19" y="-100.4" font-family="Helvetica,sans-Serif" font-weight="bold" font-size="12.00">2</text>
</g>
<!-- input1&#45;&gt;lstm1_2 -->
<g id="edge2" class="edge">
<title>input1-&gt;lstm1_2</title>
<path fill="none" stroke="#004aad" stroke-width="2" d="M97.2,-53.98C128.18,-63.19 194.69,-82.95 233.13,-94.37"/>
<polygon fill="#004aad" stroke="#004aad" stroke-width="2" points="231.97,-97.67 242.56,-97.17 233.97,-90.96 231.97,-97.67"/>
</g>
<!-- lstm1_3 -->
<g id="node7" class="node">
<title>lstm1_3</title>
<ellipse fill="#ffb380" stroke="#ffb380" cx="263.19" cy="-162" rx="22.63" ry="22.63"/>
<text text-anchor="start" x="255.69" y="-157" font-family="Helvetica,sans-Serif" font-weight="bold" font-size="20.00">⋯</text>
</g>
<!-- input1&#45;&gt;lstm1_3 -->
<g id="edge3" class="edge">
<title>input1-&gt;lstm1_3</title>
<path fill="none" stroke="#004aad" stroke-width="2" d="M97.86,-50.59C115.64,-53.1 142.95,-59.54 159.86,-76 178.2,-93.85 161.91,-111.76 179.86,-130 192.76,-143.11 211.65,-150.96 228.07,-155.6"/>
<polygon fill="#004aad" stroke="#004aad" stroke-width="2" points="227.08,-158.96 237.62,-157.95 228.75,-152.16 227.08,-158.96"/>
</g>
<!-- lstm1_512 -->
<g id="node8" class="node">
<title>lstm1_512</title>
<ellipse fill="#ffb380" stroke="#ffb380" cx="263.19" cy="-224" rx="21.72" ry="21.72"/>
<text text-anchor="start" x="254.19" y="-221.4" font-family="Helvetica,sans-Serif" font-weight="bold" font-size="12.00">512</text>
</g>
<!-- input1&#45;&gt;lstm1_512 -->
<g id="edge4" class="edge">
<title>input1-&gt;lstm1_512</title>
<path fill="none" stroke="#004aad" stroke-width="2" d="M97.83,-49.91C116.13,-51.85 144.37,-57.82 159.86,-76 194.35,-116.49 145.81,-153.13 179.86,-194 191.91,-208.46 211.54,-215.95 228.6,-219.83"/>
<polygon fill="#004aad" stroke="#004aad" stroke-width="2" points="227.82,-223.24 238.3,-221.63 229.11,-216.36 227.82,-223.24"/>
</g>
<!-- input2 -->
<g id="node2" class="node">
<title>input2</title>
<ellipse fill="#c7e1ff" stroke="#c7e1ff" cx="79.43" cy="-103" rx="18" ry="18"/>
<text text-anchor="start" x="76.43" y="-100.4" font-family="Helvetica,sans-Serif" font-weight="bold" font-size="12.00">2</text>
</g>
<!-- input2&#45;&gt;lstm1_1 -->
<g id="edge5" class="edge">
<title>input2-&gt;lstm1_1</title>
<path fill="none" stroke="#004aad" stroke-width="2" d="M97.2,-98.02C128.18,-88.81 194.69,-69.05 233.13,-57.63"/>
<polygon fill="#004aad" stroke="#004aad" stroke-width="2" points="233.97,-61.04 242.56,-54.83 231.97,-54.33 233.97,-61.04"/>
</g>
<!-- input2&#45;&gt;lstm1_2 -->
<g id="edge6" class="edge">
<title>input2-&gt;lstm1_2</title>
<path fill="none" stroke="#004aad" stroke-width="2" d="M97.86,-103C128.8,-103 193.67,-103 232,-103"/>
<polygon fill="#004aad" stroke="#004aad" stroke-width="2" points="231.79,-106.5 241.79,-103 231.79,-99.5 231.79,-106.5"/>
</g>
<!-- input2&#45;&gt;lstm1_3 -->
<g id="edge7" class="edge">
<title>input2-&gt;lstm1_3</title>
<path fill="none" stroke="#004aad" stroke-width="2" d="M96.88,-108.34C126.64,-118 189.93,-138.54 228.99,-151.22"/>
<polygon fill="#004aad" stroke="#004aad" stroke-width="2" points="227.75,-154.5 238.35,-154.26 229.92,-147.84 227.75,-154.5"/>
</g>
<!-- input2&#45;&gt;lstm1_512 -->
<g id="edge8" class="edge">
<title>input2-&gt;lstm1_512</title>
<path fill="none" stroke="#004aad" stroke-width="2" d="M97.7,-104.37C115.61,-106.71 143.28,-113.01 159.86,-130 180.67,-151.33 159.29,-172.44 179.86,-194 192.71,-207.46 212.07,-214.9 228.79,-219.01"/>
<polygon fill="#004aad" stroke="#004aad" stroke-width="2" points="227.99,-222.42 238.5,-221.03 229.42,-215.57 227.99,-222.42"/>
</g>
<!-- input3 -->
<g id="node3" class="node">
<title>input3</title>
<ellipse fill="#c7e1ff" stroke="#c7e1ff" cx="79.43" cy="-162" rx="22.63" ry="22.63"/>
<text text-anchor="start" x="71.93" y="-157" font-family="Helvetica,sans-Serif" font-weight="bold" font-size="20.00">⋯</text>
</g>
<!-- input3&#45;&gt;lstm1_1 -->
<g id="edge9" class="edge">
<title>input3-&gt;lstm1_1</title>
<path fill="none" stroke="#004aad" stroke-width="2" d="M102.01,-158.31C119.72,-154.23 144.32,-145.99 159.86,-130 177.7,-111.65 161.43,-93.75 179.86,-76 193.88,-62.5 214.77,-55.75 231.99,-52.37"/>
<polygon fill="#004aad" stroke="#004aad" stroke-width="2" points="232.51,-55.83 241.83,-50.8 231.4,-48.92 232.51,-55.83"/>
</g>
<!-- input3&#45;&gt;lstm1_2 -->
<g id="edge10" class="edge">
<title>input3-&gt;lstm1_2</title>
<path fill="none" stroke="#004aad" stroke-width="2" d="M101.28,-155.23C133.75,-144.69 196.49,-124.33 233.3,-112.38"/>
<polygon fill="#004aad" stroke="#004aad" stroke-width="2" points="234.28,-115.74 242.71,-109.32 232.11,-109.08 234.28,-115.74"/>
</g>
<!-- input3&#45;&gt;lstm1_3 -->
<g id="edge11" class="edge">
<title>input3-&gt;lstm1_3</title>
<path fill="none" stroke="#004aad" stroke-width="2" d="M102.36,-162C133.47,-162 190.74,-162 227.61,-162"/>
<polygon fill="#004aad" stroke="#004aad" stroke-width="2" points="227.16,-165.5 237.16,-162 227.16,-158.5 227.16,-165.5"/>
</g>
<!-- input3&#45;&gt;lstm1_512 -->
<g id="edge12" class="edge">
<title>input3-&gt;lstm1_512</title>
<path fill="none" stroke="#004aad" stroke-width="2" d="M101.28,-169.11C132.81,-179.87 192.88,-200.36 230.03,-213.03"/>
<polygon fill="#004aad" stroke="#004aad" stroke-width="2" points="228.68,-216.27 239.27,-216.18 230.94,-209.64 228.68,-216.27"/>
</g>
<!-- input88 -->
<g id="node4" class="node">
<title>input88</title>
<ellipse fill="#c7e1ff" stroke="#c7e1ff" cx="79.43" cy="-221" rx="18" ry="18"/>
<text text-anchor="start" x="73.43" y="-218.4" font-family="Helvetica,sans-Serif" font-weight="bold" font-size="12.00">88</text>
</g>
<!-- input88&#45;&gt;lstm1_1 -->
<g id="edge13" class="edge">
<title>input88-&gt;lstm1_1</title>
<path fill="none" stroke="#004aad" stroke-width="2" d="M97.83,-220.09C116.13,-218.15 144.37,-212.18 159.86,-194 194.35,-153.51 145.15,-116.31 179.86,-76 192.85,-60.92 214.39,-54.22 232.19,-51.26"/>
<polygon fill="#004aad" stroke="#004aad" stroke-width="2" points="232.38,-54.76 241.86,-50.03 231.5,-47.82 232.38,-54.76"/>
</g>
<!-- input88&#45;&gt;lstm1_2 -->
<g id="edge14" class="edge">
<title>input88-&gt;lstm1_2</title>
<path fill="none" stroke="#004aad" stroke-width="2" d="M97.7,-219.63C115.61,-217.29 143.28,-210.99 159.86,-194 180.67,-172.67 158.94,-151.22 179.86,-130 193.68,-115.99 214.88,-109.24 232.31,-106"/>
<polygon fill="#004aad" stroke="#004aad" stroke-width="2" points="232.62,-109.49 241.99,-104.56 231.58,-102.57 232.62,-109.49"/>
</g>
<!-- input88&#45;&gt;lstm1_3 -->
<g id="edge15" class="edge">
<title>input88-&gt;lstm1_3</title>
<path fill="none" stroke="#004aad" stroke-width="2" d="M96.88,-215.66C126.64,-206 189.93,-185.46 228.99,-172.78"/>
<polygon fill="#004aad" stroke="#004aad" stroke-width="2" points="229.92,-176.16 238.35,-169.74 227.75,-169.5 229.92,-176.16"/>
</g>
<!-- input88&#45;&gt;lstm1_512 -->
<g id="edge16" class="edge">
<title>input88-&gt;lstm1_512</title>
<path fill="none" stroke="#004aad" stroke-width="2" d="M97.86,-221.29C127.84,-221.78 189.67,-222.8 228.35,-223.44"/>
<polygon fill="#004aad" stroke="#004aad" stroke-width="2" points="228.13,-226.94 238.19,-223.6 228.25,-219.94 228.13,-226.94"/>
</g>
<!-- lstm2_1 -->
<g id="node9" class="node">
<title>lstm2_1</title>
<ellipse fill="#ff9966" stroke="#ff9966" cx="450.85" cy="-49" rx="18" ry="18"/>
<text text-anchor="start" x="447.85" y="-46.4" font-family="Helvetica,sans-Serif" font-weight="bold" font-size="12.00">1</text>
</g>
<!-- lstm1_1&#45;&gt;lstm2_1 -->
<g id="edge17" class="edge">
<title>lstm1_1-&gt;lstm2_1</title>
<path fill="none" stroke="#ff884d" stroke-width="2" d="M281.66,-49C313.32,-49 380.54,-49 419.74,-49"/>
<polygon fill="#ff884d" stroke="#ff884d" stroke-width="2" points="419.53,-52.5 429.53,-49 419.53,-45.5 419.53,-52.5"/>
</g>
<!-- lstm2_2 -->
<g id="node10" class="node">
<title>lstm2_2</title>
<ellipse fill="#ff9966" stroke="#ff9966" cx="450.85" cy="-103" rx="18" ry="18"/>
<text text-anchor="start" x="447.85" y="-100.4" font-family="Helvetica,sans-Serif" font-weight="bold" font-size="12.00">2</text>
</g>
<!-- lstm1_1&#45;&gt;lstm2_2 -->
<g id="edge18" class="edge">
<title>lstm1_1-&gt;lstm2_2</title>
<path fill="none" stroke="#ff884d" stroke-width="2" d="M280.99,-53.89C312.68,-63.1 381.6,-83.15 420.89,-94.58"/>
<polygon fill="#ff884d" stroke="#ff884d" stroke-width="2" points="419.73,-97.88 430.31,-97.32 421.68,-91.16 419.73,-97.88"/>
</g>
<!-- lstm2_3 -->
<g id="node11" class="node">
<title>lstm2_3</title>
<ellipse fill="#ff9966" stroke="#ff9966" cx="450.85" cy="-162" rx="22.63" ry="22.63"/>
<text text-anchor="start" x="443.35" y="-157" font-family="Helvetica,sans-Serif" font-weight="bold" font-size="20.00">⋯</text>
</g>
<!-- lstm1_1&#45;&gt;lstm2_3 -->
<g id="edge19" class="edge">
<title>lstm1_1-&gt;lstm2_3</title>
<path fill="none" stroke="#ff884d" stroke-width="2" d="M281.43,-50.22C300.03,-52.43 329.41,-58.63 347.52,-76 365.99,-93.72 349.57,-111.76 367.52,-130 380.42,-143.11 399.3,-150.96 415.73,-155.6"/>
<polygon fill="#ff884d" stroke="#ff884d" stroke-width="2" points="414.73,-158.96 425.28,-157.95 416.4,-152.16 414.73,-158.96"/>
</g>
<!-- lstm2_512 -->
<g id="node12" class="node">
<title>lstm2_512</title>
<ellipse fill="#ff9966" stroke="#ff9966" cx="450.85" cy="-224" rx="21.72" ry="21.72"/>
<text text-anchor="start" x="441.85" y="-221.4" font-family="Helvetica,sans-Serif" font-weight="bold" font-size="12.00">512</text>
</g>
<!-- lstm1_1&#45;&gt;lstm2_512 -->
<g id="edge20" class="edge">
<title>lstm1_1-&gt;lstm2_512</title>
<path fill="none" stroke="#ff884d" stroke-width="2" d="M281.38,-49.55C300.51,-51.15 330.91,-56.79 347.52,-76 382.3,-116.25 333.47,-153.13 367.52,-194 379.56,-208.46 399.19,-215.95 416.26,-219.83"/>
<polygon fill="#ff884d" stroke="#ff884d" stroke-width="2" points="415.48,-223.24 425.95,-221.63 416.76,-216.36 415.48,-223.24"/>
</g>
<!-- lstm1_2&#45;&gt;lstm2_1 -->
<g id="edge21" class="edge">
<title>lstm1_2-&gt;lstm2_1</title>
<path fill="none" stroke="#ff884d" stroke-width="2" d="M280.99,-98.11C312.68,-88.9 381.6,-68.85 420.89,-57.42"/>
<polygon fill="#ff884d" stroke="#ff884d" stroke-width="2" points="421.68,-60.84 430.31,-54.68 419.73,-54.12 421.68,-60.84"/>
</g>
<!-- lstm1_2&#45;&gt;lstm2_2 -->
<g id="edge22" class="edge">
<title>lstm1_2-&gt;lstm2_2</title>
<path fill="none" stroke="#ff884d" stroke-width="2" d="M281.66,-103C313.32,-103 380.54,-103 419.74,-103"/>
<polygon fill="#ff884d" stroke="#ff884d" stroke-width="2" points="419.53,-106.5 429.53,-103 419.53,-99.5 419.53,-106.5"/>
</g>
<!-- lstm1_2&#45;&gt;lstm2_3 -->
<g id="edge23" class="edge">
<title>lstm1_2-&gt;lstm2_3</title>
<path fill="none" stroke="#ff884d" stroke-width="2" d="M280.67,-108.24C311.11,-117.91 376.71,-138.76 416.68,-151.46"/>
<polygon fill="#ff884d" stroke="#ff884d" stroke-width="2" points="415.45,-154.74 426.04,-154.44 417.57,-148.07 415.45,-154.74"/>
</g>
<!-- lstm1_2&#45;&gt;lstm2_512 -->
<g id="edge24" class="edge">
<title>lstm1_2-&gt;lstm2_512</title>
<path fill="none" stroke="#ff884d" stroke-width="2" d="M281.6,-104.05C300.35,-106.1 329.87,-112.16 347.52,-130 368.48,-151.18 346.94,-172.44 367.52,-194 380.36,-207.46 399.73,-214.9 416.45,-219.01"/>
<polygon fill="#ff884d" stroke="#ff884d" stroke-width="2" points="415.65,-222.42 426.15,-221.03 417.07,-215.57 415.65,-222.42"/>
</g>
<!-- lstm1_3&#45;&gt;lstm2_1 -->
<g id="edge25" class="edge">
<title>lstm1_3-&gt;lstm2_1</title>
<path fill="none" stroke="#ff884d" stroke-width="2" d="M286.08,-158.74C304.69,-154.89 330.96,-146.76 347.52,-130 365.51,-111.8 349.08,-93.75 367.52,-76 381.54,-62.5 402.42,-55.75 419.65,-52.37"/>
<polygon fill="#ff884d" stroke="#ff884d" stroke-width="2" points="420.16,-55.83 429.49,-50.8 419.06,-48.92 420.16,-55.83"/>
</g>
<!-- lstm1_3&#45;&gt;lstm2_2 -->
<g id="edge26" class="edge">
<title>lstm1_3-&gt;lstm2_2</title>
<path fill="none" stroke="#ff884d" stroke-width="2" d="M285.13,-155.35C318.46,-144.75 383.68,-124.03 421.28,-112.08"/>
<polygon fill="#ff884d" stroke="#ff884d" stroke-width="2" points="421.97,-115.53 430.44,-109.17 419.85,-108.86 421.97,-115.53"/>
</g>
<!-- lstm1_3&#45;&gt;lstm2_3 -->
<g id="edge27" class="edge">
<title>lstm1_3-&gt;lstm2_3</title>
<path fill="none" stroke="#ff884d" stroke-width="2" d="M286.22,-162C318.04,-162 377.19,-162 414.98,-162"/>
<polygon fill="#ff884d" stroke="#ff884d" stroke-width="2" points="414.82,-165.5 424.82,-162 414.82,-158.5 414.82,-165.5"/>
</g>
<!-- lstm1_3&#45;&gt;lstm2_512 -->
<g id="edge28" class="edge">
<title>lstm1_3-&gt;lstm2_512</title>
<path fill="none" stroke="#ff884d" stroke-width="2" d="M285.13,-168.99C317.5,-179.8 379.94,-200.66 417.95,-213.35"/>
<polygon fill="#ff884d" stroke="#ff884d" stroke-width="2" points="416.37,-216.51 426.96,-216.36 418.58,-209.87 416.37,-216.51"/>
</g>
<!-- lstm1_512&#45;&gt;lstm2_1 -->
<g id="edge29" class="edge">
<title>lstm1_512-&gt;lstm2_1</title>
<path fill="none" stroke="#ff884d" stroke-width="2" d="M284.99,-222.32C304.2,-219.6 332.03,-212.52 347.52,-194 381.64,-153.2 332.81,-116.31 367.52,-76 380.5,-60.92 402.05,-54.22 419.84,-51.26"/>
<polygon fill="#ff884d" stroke="#ff884d" stroke-width="2" points="420.03,-54.76 429.51,-50.03 419.15,-47.82 420.03,-54.76"/>
</g>
<!-- lstm1_512&#45;&gt;lstm2_2 -->
<g id="edge30" class="edge">
<title>lstm1_512-&gt;lstm2_2</title>
<path fill="none" stroke="#ff884d" stroke-width="2" d="M285.17,-221.71C303.96,-218.58 331.03,-211.21 347.52,-194 368.14,-172.48 346.59,-151.22 367.52,-130 381.34,-115.99 402.53,-109.24 419.96,-106"/>
<polygon fill="#ff884d" stroke="#ff884d" stroke-width="2" points="420.27,-109.49 429.64,-104.56 419.24,-102.57 420.27,-109.49"/>
</g>
<!-- lstm1_512&#45;&gt;lstm2_3 -->
<g id="edge31" class="edge">
<title>lstm1_512-&gt;lstm2_3</title>
<path fill="none" stroke="#ff884d" stroke-width="2" d="M284.06,-217.36C315.76,-206.78 378.12,-185.95 416.67,-173.08"/>
<polygon fill="#ff884d" stroke="#ff884d" stroke-width="2" points="417.74,-176.41 426.12,-169.92 415.52,-169.77 417.74,-176.41"/>
</g>
<!-- lstm1_512&#45;&gt;lstm2_512 -->
<g id="edge32" class="edge">
<title>lstm1_512-&gt;lstm2_512</title>
<path fill="none" stroke="#ff884d" stroke-width="2" d="M285.13,-224C316.88,-224 377.56,-224 415.75,-224"/>
<polygon fill="#ff884d" stroke="#ff884d" stroke-width="2" points="415.67,-227.5 425.67,-224 415.67,-220.5 415.67,-227.5"/>
</g>
<!-- lstm3_1 -->
<g id="node13" class="node">
<title>lstm3_1</title>
<ellipse fill="#ff794d" stroke="#ff794d" cx="638.5" cy="-49" rx="18" ry="18"/>
<text text-anchor="start" x="635.5" y="-46.4" font-family="Helvetica,sans-Serif" font-weight="bold" font-size="12.00">1</text>
</g>
<!-- lstm2_1&#45;&gt;lstm3_1 -->
<g id="edge33" class="edge">
<title>lstm2_1-&gt;lstm3_1</title>
<path fill="none" stroke="#ff6633" stroke-width="2" d="M469.31,-49C500.98,-49 568.2,-49 607.39,-49"/>
<polygon fill="#ff6633" stroke="#ff6633" stroke-width="2" points="607.19,-52.5 617.19,-49 607.19,-45.5 607.19,-52.5"/>
</g>
<!-- lstm3_2 -->
<g id="node14" class="node">
<title>lstm3_2</title>
<ellipse fill="#ff794d" stroke="#ff794d" cx="638.5" cy="-103" rx="18" ry="18"/>
<text text-anchor="start" x="635.5" y="-100.4" font-family="Helvetica,sans-Serif" font-weight="bold" font-size="12.00">2</text>
</g>
<!-- lstm2_1&#45;&gt;lstm3_2 -->
<g id="edge34" class="edge">
<title>lstm2_1-&gt;lstm3_2</title>
<path fill="none" stroke="#ff6633" stroke-width="2" d="M468.65,-53.89C500.34,-63.1 569.26,-83.15 608.55,-94.58"/>
<polygon fill="#ff6633" stroke="#ff6633" stroke-width="2" points="607.38,-97.88 617.96,-97.32 609.34,-91.16 607.38,-97.88"/>
</g>
<!-- lstm3_3 -->
<g id="node15" class="node">
<title>lstm3_3</title>
<ellipse fill="#ff794d" stroke="#ff794d" cx="638.5" cy="-162" rx="22.63" ry="22.63"/>
<text text-anchor="start" x="631" y="-157" font-family="Helvetica,sans-Serif" font-weight="bold" font-size="20.00">⋯</text>
</g>
<!-- lstm2_1&#45;&gt;lstm3_3 -->
<g id="edge35" class="edge">
<title>lstm2_1-&gt;lstm3_3</title>
<path fill="none" stroke="#ff6633" stroke-width="2" d="M469.08,-50.22C487.68,-52.43 517.07,-58.63 535.17,-76 553.64,-93.72 537.22,-111.76 555.17,-130 568.07,-143.11 586.96,-150.96 603.39,-155.6"/>
<polygon fill="#ff6633" stroke="#ff6633" stroke-width="2" points="602.39,-158.96 612.93,-157.95 604.06,-152.16 602.39,-158.96"/>
</g>
<!-- lstm3_512 -->
<g id="node16" class="node">
<title>lstm3_512</title>
<ellipse fill="#ff794d" stroke="#ff794d" cx="638.5" cy="-224" rx="21.72" ry="21.72"/>
<text text-anchor="start" x="629.5" y="-221.4" font-family="Helvetica,sans-Serif" font-weight="bold" font-size="12.00">512</text>
</g>
<!-- lstm2_1&#45;&gt;lstm3_512 -->
<g id="edge36" class="edge">
<title>lstm2_1-&gt;lstm3_512</title>
<path fill="none" stroke="#ff6633" stroke-width="2" d="M469.04,-49.55C488.17,-51.15 518.57,-56.79 535.17,-76 569.95,-116.25 521.12,-153.13 555.17,-194 567.22,-208.46 586.85,-215.95 603.92,-219.83"/>
<polygon fill="#ff6633" stroke="#ff6633" stroke-width="2" points="603.13,-223.24 613.61,-221.63 604.42,-216.36 603.13,-223.24"/>
</g>
<!-- lstm2_2&#45;&gt;lstm3_1 -->
<g id="edge37" class="edge">
<title>lstm2_2-&gt;lstm3_1</title>
<path fill="none" stroke="#ff6633" stroke-width="2" d="M468.65,-98.11C500.34,-88.9 569.26,-68.85 608.55,-57.42"/>
<polygon fill="#ff6633" stroke="#ff6633" stroke-width="2" points="609.34,-60.84 617.96,-54.68 607.38,-54.12 609.34,-60.84"/>
</g>
<!-- lstm2_2&#45;&gt;lstm3_2 -->
<g id="edge38" class="edge">
<title>lstm2_2-&gt;lstm3_2</title>
<path fill="none" stroke="#ff6633" stroke-width="2" d="M469.31,-103C500.98,-103 568.2,-103 607.39,-103"/>
<polygon fill="#ff6633" stroke="#ff6633" stroke-width="2" points="607.19,-106.5 617.19,-103 607.19,-99.5 607.19,-106.5"/>
</g>
<!-- lstm2_2&#45;&gt;lstm3_3 -->
<g id="edge39" class="edge">
<title>lstm2_2-&gt;lstm3_3</title>
<path fill="none" stroke="#ff6633" stroke-width="2" d="M468.32,-108.24C498.76,-117.91 564.36,-138.76 604.34,-151.46"/>
<polygon fill="#ff6633" stroke="#ff6633" stroke-width="2" points="603.11,-154.74 613.7,-154.44 605.23,-148.07 603.11,-154.74"/>
</g>
<!-- lstm2_2&#45;&gt;lstm3_512 -->
<g id="edge40" class="edge">
<title>lstm2_2-&gt;lstm3_512</title>
<path fill="none" stroke="#ff6633" stroke-width="2" d="M469.26,-104.05C488.01,-106.1 517.52,-112.16 535.17,-130 556.13,-151.18 534.6,-172.44 555.17,-194 568.02,-207.46 587.38,-214.9 604.1,-219.01"/>
<polygon fill="#ff6633" stroke="#ff6633" stroke-width="2" points="603.3,-222.42 613.81,-221.03 604.73,-215.57 603.3,-222.42"/>
</g>
<!-- lstm2_3&#45;&gt;lstm3_1 -->
<g id="edge41" class="edge">
<title>lstm2_3-&gt;lstm3_1</title>
<path fill="none" stroke="#ff6633" stroke-width="2" d="M473.73,-158.74C492.34,-154.89 518.62,-146.76 535.17,-130 553.16,-111.8 536.74,-93.75 555.17,-76 569.19,-62.5 590.08,-55.75 607.3,-52.37"/>
<polygon fill="#ff6633" stroke="#ff6633" stroke-width="2" points="607.82,-55.83 617.14,-50.8 606.71,-48.92 607.82,-55.83"/>
</g>
<!-- lstm2_3&#45;&gt;lstm3_2 -->
<g id="edge42" class="edge">
<title>lstm2_3-&gt;lstm3_2</title>
<path fill="none" stroke="#ff6633" stroke-width="2" d="M472.78,-155.35C506.12,-144.75 571.33,-124.03 608.93,-112.08"/>
<polygon fill="#ff6633" stroke="#ff6633" stroke-width="2" points="609.63,-115.53 618.1,-109.17 607.51,-108.86 609.63,-115.53"/>
</g>
<!-- lstm2_3&#45;&gt;lstm3_3 -->
<g id="edge43" class="edge">
<title>lstm2_3-&gt;lstm3_3</title>
<path fill="none" stroke="#ff6633" stroke-width="2" d="M473.87,-162C505.69,-162 564.85,-162 602.64,-162"/>
<polygon fill="#ff6633" stroke="#ff6633" stroke-width="2" points="602.48,-165.5 612.48,-162 602.48,-158.5 602.48,-165.5"/>
</g>
<!-- lstm2_3&#45;&gt;lstm3_512 -->
<g id="edge44" class="edge">
<title>lstm2_3-&gt;lstm3_512</title>
<path fill="none" stroke="#ff6633" stroke-width="2" d="M472.78,-168.99C505.16,-179.8 567.6,-200.66 605.61,-213.35"/>
<polygon fill="#ff6633" stroke="#ff6633" stroke-width="2" points="604.02,-216.51 614.61,-216.36 606.24,-209.87 604.02,-216.51"/>
</g>
<!-- lstm2_512&#45;&gt;lstm3_1 -->
<g id="edge45" class="edge">
<title>lstm2_512-&gt;lstm3_1</title>
<path fill="none" stroke="#ff6633" stroke-width="2" d="M472.64,-222.32C491.85,-219.6 519.69,-212.52 535.17,-194 569.3,-153.2 520.46,-116.31 555.17,-76 568.16,-60.92 589.7,-54.22 607.5,-51.26"/>
<polygon fill="#ff6633" stroke="#ff6633" stroke-width="2" points="607.69,-54.76 617.17,-50.03 606.81,-47.82 607.69,-54.76"/>
</g>
<!-- lstm2_512&#45;&gt;lstm3_2 -->
<g id="edge46" class="edge">
<title>lstm2_512-&gt;lstm3_2</title>
<path fill="none" stroke="#ff6633" stroke-width="2" d="M472.82,-221.71C491.62,-218.58 518.68,-211.21 535.17,-194 555.79,-172.48 534.25,-151.22 555.17,-130 568.99,-115.99 590.19,-109.24 607.62,-106"/>
<polygon fill="#ff6633" stroke="#ff6633" stroke-width="2" points="607.93,-109.49 617.3,-104.56 606.89,-102.57 607.93,-109.49"/>
</g>
<!-- lstm2_512&#45;&gt;lstm3_3 -->
<g id="edge47" class="edge">
<title>lstm2_512-&gt;lstm3_3</title>
<path fill="none" stroke="#ff6633" stroke-width="2" d="M471.71,-217.36C503.41,-206.78 565.78,-185.95 604.33,-173.08"/>
<polygon fill="#ff6633" stroke="#ff6633" stroke-width="2" points="605.4,-176.41 613.77,-169.92 603.18,-169.77 605.4,-176.41"/>
</g>
<!-- lstm2_512&#45;&gt;lstm3_512 -->
<g id="edge48" class="edge">
<title>lstm2_512-&gt;lstm3_512</title>
<path fill="none" stroke="#ff6633" stroke-width="2" d="M472.78,-224C504.54,-224 565.22,-224 603.4,-224"/>
<polygon fill="#ff6633" stroke="#ff6633" stroke-width="2" points="603.33,-227.5 613.33,-224 603.33,-220.5 603.33,-227.5"/>
</g>
<!-- lstm4_1 -->
<g id="node17" class="node">
<title>lstm4_1</title>
<ellipse fill="#ff5c1a" stroke="#ff5c1a" cx="826.16" cy="-49" rx="18" ry="18"/>
<text text-anchor="start" x="823.16" y="-46.4" font-family="Helvetica,sans-Serif" font-weight="bold" font-size="12.00">1</text>
</g>
<!-- lstm3_1&#45;&gt;lstm4_1 -->
<g id="edge49" class="edge">
<title>lstm3_1-&gt;lstm4_1</title>
<path fill="none" stroke="#ff4400" stroke-width="2" d="M656.97,-49C688.63,-49 755.85,-49 795.05,-49"/>
<polygon fill="#ff4400" stroke="#ff4400" stroke-width="2" points="794.84,-52.5 804.84,-49 794.84,-45.5 794.84,-52.5"/>
</g>
<!-- lstm4_2 -->
<g id="node18" class="node">
<title>lstm4_2</title>
<ellipse fill="#ff5c1a" stroke="#ff5c1a" cx="826.16" cy="-103" rx="18" ry="18"/>
<text text-anchor="start" x="823.16" y="-100.4" font-family="Helvetica,sans-Serif" font-weight="bold" font-size="12.00">2</text>
</g>
<!-- lstm3_1&#45;&gt;lstm4_2 -->
<g id="edge50" class="edge">
<title>lstm3_1-&gt;lstm4_2</title>
<path fill="none" stroke="#ff4400" stroke-width="2" d="M656.3,-53.89C687.99,-63.1 756.91,-83.15 796.2,-94.58"/>
<polygon fill="#ff4400" stroke="#ff4400" stroke-width="2" points="795.04,-97.88 805.62,-97.32 796.99,-91.16 795.04,-97.88"/>
</g>
<!-- lstm4_3 -->
<g id="node19" class="node">
<title>lstm4_3</title>
<ellipse fill="#ff5c1a" stroke="#ff5c1a" cx="826.16" cy="-162" rx="22.63" ry="22.63"/>
<text text-anchor="start" x="818.66" y="-157" font-family="Helvetica,sans-Serif" font-weight="bold" font-size="20.00">⋯</text>
</g>
<!-- lstm3_1&#45;&gt;lstm4_3 -->
<g id="edge51" class="edge">
<title>lstm3_1-&gt;lstm4_3</title>
<path fill="none" stroke="#ff4400" stroke-width="2" d="M656.74,-50.22C675.34,-52.43 704.72,-58.63 722.83,-76 741.3,-93.72 724.88,-111.76 742.83,-130 755.73,-143.11 774.61,-150.96 791.04,-155.6"/>
<polygon fill="#ff4400" stroke="#ff4400" stroke-width="2" points="790.04,-158.96 800.59,-157.95 791.72,-152.16 790.04,-158.96"/>
</g>
<!-- lstm4_512 -->
<g id="node20" class="node">
<title>lstm4_512</title>
<ellipse fill="#ff5c1a" stroke="#ff5c1a" cx="826.16" cy="-224" rx="21.72" ry="21.72"/>
<text text-anchor="start" x="817.16" y="-221.4" font-family="Helvetica,sans-Serif" font-weight="bold" font-size="12.00">512</text>
</g>
<!-- lstm3_1&#45;&gt;lstm4_512 -->
<g id="edge52" class="edge">
<title>lstm3_1-&gt;lstm4_512</title>
<path fill="none" stroke="#ff4400" stroke-width="2" d="M656.69,-49.55C675.82,-51.15 706.22,-56.79 722.83,-76 757.61,-116.25 708.78,-153.13 742.83,-194 754.87,-208.46 774.5,-215.95 791.57,-219.83"/>
<polygon fill="#ff4400" stroke="#ff4400" stroke-width="2" points="790.79,-223.24 801.26,-221.63 792.07,-216.36 790.79,-223.24"/>
</g>
<!-- lstm3_2&#45;&gt;lstm4_1 -->
<g id="edge53" class="edge">
<title>lstm3_2-&gt;lstm4_1</title>
<path fill="none" stroke="#ff4400" stroke-width="2" d="M656.3,-98.11C687.99,-88.9 756.91,-68.85 796.2,-57.42"/>
<polygon fill="#ff4400" stroke="#ff4400" stroke-width="2" points="796.99,-60.84 805.62,-54.68 795.04,-54.12 796.99,-60.84"/>
</g>
<!-- lstm3_2&#45;&gt;lstm4_2 -->
<g id="edge54" class="edge">
<title>lstm3_2-&gt;lstm4_2</title>
<path fill="none" stroke="#ff4400" stroke-width="2" d="M656.97,-103C688.63,-103 755.85,-103 795.05,-103"/>
<polygon fill="#ff4400" stroke="#ff4400" stroke-width="2" points="794.84,-106.5 804.84,-103 794.84,-99.5 794.84,-106.5"/>
</g>
<!-- lstm3_2&#45;&gt;lstm4_3 -->
<g id="edge55" class="edge">
<title>lstm3_2-&gt;lstm4_3</title>
<path fill="none" stroke="#ff4400" stroke-width="2" d="M655.98,-108.24C686.42,-117.91 752.02,-138.76 791.99,-151.46"/>
<polygon fill="#ff4400" stroke="#ff4400" stroke-width="2" points="790.76,-154.74 801.35,-154.44 792.88,-148.07 790.76,-154.74"/>
</g>
<!-- lstm3_2&#45;&gt;lstm4_512 -->
<g id="edge56" class="edge">
<title>lstm3_2-&gt;lstm4_512</title>
<path fill="none" stroke="#ff4400" stroke-width="2" d="M656.91,-104.05C675.66,-106.1 705.18,-112.16 722.83,-130 743.79,-151.18 722.25,-172.44 742.83,-194 755.67,-207.46 775.04,-214.9 791.76,-219.01"/>
<polygon fill="#ff4400" stroke="#ff4400" stroke-width="2" points="790.96,-222.42 801.46,-221.03 792.38,-215.57 790.96,-222.42"/>
</g>
<!-- lstm3_3&#45;&gt;lstm4_1 -->
<g id="edge57" class="edge">
<title>lstm3_3-&gt;lstm4_1</title>
<path fill="none" stroke="#ff4400" stroke-width="2" d="M661.39,-158.74C680,-154.89 706.27,-146.76 722.83,-130 740.82,-111.8 724.39,-93.75 742.83,-76 756.85,-62.5 777.73,-55.75 794.96,-52.37"/>
<polygon fill="#ff4400" stroke="#ff4400" stroke-width="2" points="795.47,-55.83 804.8,-50.8 794.37,-48.92 795.47,-55.83"/>
</g>
<!-- lstm3_3&#45;&gt;lstm4_2 -->
<g id="edge58" class="edge">
<title>lstm3_3-&gt;lstm4_2</title>
<path fill="none" stroke="#ff4400" stroke-width="2" d="M660.44,-155.35C693.77,-144.75 758.99,-124.03 796.59,-112.08"/>
<polygon fill="#ff4400" stroke="#ff4400" stroke-width="2" points="797.28,-115.53 805.75,-109.17 795.16,-108.86 797.28,-115.53"/>
</g>
<!-- lstm3_3&#45;&gt;lstm4_3 -->
<g id="edge59" class="edge">
<title>lstm3_3-&gt;lstm4_3</title>
<path fill="none" stroke="#ff4400" stroke-width="2" d="M661.53,-162C693.35,-162 752.5,-162 790.29,-162"/>
<polygon fill="#ff4400" stroke="#ff4400" stroke-width="2" points="790.13,-165.5 800.13,-162 790.13,-158.5 790.13,-165.5"/>
</g>
<!-- lstm3_3&#45;&gt;lstm4_512 -->
<g id="edge60" class="edge">
<title>lstm3_3-&gt;lstm4_512</title>
<path fill="none" stroke="#ff4400" stroke-width="2" d="M660.44,-168.99C692.81,-179.8 755.25,-200.66 793.26,-213.35"/>
<polygon fill="#ff4400" stroke="#ff4400" stroke-width="2" points="791.68,-216.51 802.27,-216.36 793.89,-209.87 791.68,-216.51"/>
</g>
<!-- lstm3_512&#45;&gt;lstm4_1 -->
<g id="edge61" class="edge">
<title>lstm3_512-&gt;lstm4_1</title>
<path fill="none" stroke="#ff4400" stroke-width="2" d="M660.3,-222.32C679.51,-219.6 707.34,-212.52 722.83,-194 756.96,-153.2 708.12,-116.31 742.83,-76 755.81,-60.92 777.36,-54.22 795.15,-51.26"/>
<polygon fill="#ff4400" stroke="#ff4400" stroke-width="2" points="795.34,-54.76 804.82,-50.03 794.46,-47.82 795.34,-54.76"/>
</g>
<!-- lstm3_512&#45;&gt;lstm4_2 -->
<g id="edge62" class="edge">
<title>lstm3_512-&gt;lstm4_2</title>
<path fill="none" stroke="#ff4400" stroke-width="2" d="M660.48,-221.71C679.27,-218.58 706.34,-211.21 722.83,-194 743.45,-172.48 721.9,-151.22 742.83,-130 756.65,-115.99 777.85,-109.24 795.27,-106"/>
<polygon fill="#ff4400" stroke="#ff4400" stroke-width="2" points="795.58,-109.49 804.96,-104.56 794.55,-102.57 795.58,-109.49"/>
</g>
<!-- lstm3_512&#45;&gt;lstm4_3 -->
<g id="edge63" class="edge">
<title>lstm3_512-&gt;lstm4_3</title>
<path fill="none" stroke="#ff4400" stroke-width="2" d="M659.37,-217.36C691.07,-206.78 753.43,-185.95 791.98,-173.08"/>
<polygon fill="#ff4400" stroke="#ff4400" stroke-width="2" points="793.05,-176.41 801.43,-169.92 790.83,-169.77 793.05,-176.41"/>
</g>
<!-- lstm3_512&#45;&gt;lstm4_512 -->
<g id="edge64" class="edge">
<title>lstm3_512-&gt;lstm4_512</title>
<path fill="none" stroke="#ff4400" stroke-width="2" d="M660.44,-224C692.19,-224 752.87,-224 791.06,-224"/>
<polygon fill="#ff4400" stroke="#ff4400" stroke-width="2" points="790.98,-227.5 800.98,-224 790.98,-220.5 790.98,-227.5"/>
</g>
<!-- dropout -->
<g id="node21" class="node">
<title>dropout</title>
<ellipse fill="#98ffb3" stroke="#98ffb3" cx="982.9" cy="-117" rx="37.9" ry="37.9"/>
<text text-anchor="start" x="961.23" y="-114.4" font-family="Helvetica,sans-Serif" font-weight="bold" font-size="12.00">Dropout</text>
</g>
<!-- lstm4_1&#45;&gt;dropout -->
<g id="edge65" class="edge">
<title>lstm4_1-&gt;dropout</title>
<path fill="none" stroke="#ff4400" stroke-width="2" d="M843.82,-53.3C860.91,-57.96 888.1,-66.08 910.48,-76 920.05,-80.24 929.99,-85.41 939.3,-90.63"/>
<polygon fill="#ff4400" stroke="#ff4400" stroke-width="2" points="937.25,-93.49 947.66,-95.45 940.75,-87.43 937.25,-93.49"/>
</g>
<!-- lstm4_2&#45;&gt;dropout -->
<g id="edge66" class="edge">
<title>lstm4_2-&gt;dropout</title>
<path fill="none" stroke="#ff4400" stroke-width="2" d="M844.31,-104.55C865.28,-106.45 901.71,-109.75 931.81,-112.47"/>
<polygon fill="#ff4400" stroke="#ff4400" stroke-width="2" points="931.4,-115.95 941.68,-113.36 932.03,-108.97 931.4,-115.95"/>
</g>
<!-- lstm4_3&#45;&gt;dropout -->
<g id="edge67" class="edge">
<title>lstm4_3-&gt;dropout</title>
<path fill="none" stroke="#ff4400" stroke-width="2" d="M848.35,-155.84C870.27,-149.46 905.24,-139.29 933.89,-130.96"/>
<polygon fill="#ff4400" stroke="#ff4400" stroke-width="2" points="934.61,-134.4 943.23,-128.24 932.65,-127.68 934.61,-134.4"/>
</g>
<!-- lstm4_512&#45;&gt;dropout -->
<g id="edge68" class="edge">
<title>lstm4_512-&gt;dropout</title>
<path fill="none" stroke="#ff4400" stroke-width="2" d="M847.59,-219.55C865.27,-215.05 890.99,-206.89 910.48,-194 925.51,-184.06 939.58,-170.32 951.18,-157.2"/>
<polygon fill="#ff4400" stroke="#ff4400" stroke-width="2" points="953.78,-159.55 957.6,-149.66 948.45,-155.01 953.78,-159.55"/>
</g>
<!-- fc -->
<g id="node22" class="node">
<title>fc</title>
<ellipse fill="#d6e5ff" stroke="#d6e5ff" cx="1160.05" cy="-117" rx="20.44" ry="20.44"/>
<text text-anchor="start" x="1152.05" y="-114.4" font-family="Helvetica,sans-Serif" font-weight="bold" font-size="12.00">FC</text>
</g>
<!-- dropout&#45;&gt;fc -->
<g id="edge69" class="edge">
<title>dropout-&gt;fc</title>
<path fill="none" stroke="#2e8b57" stroke-width="2" d="M1021.04,-117C1052.25,-117 1096.42,-117 1126.32,-117"/>
<polygon fill="#2e8b57" stroke="#2e8b57" stroke-width="2" points="1126.31,-120.5 1136.31,-117 1126.31,-113.5 1126.31,-120.5"/>
</g>
<!-- output1 -->
<g id="node23" class="node">
<title>output1</title>
<ellipse fill="#a3c2ff" stroke="#a3c2ff" cx="1424.3" cy="-34" rx="18" ry="18"/>
<text text-anchor="start" x="1421.3" y="-31.4" font-family="Helvetica,sans-Serif" font-weight="bold" font-size="12.00">1</text>
</g>
<!-- fc&#45;&gt;output1 -->
<g id="edge70" class="edge">
<title>fc-&gt;output1</title>
<path fill="none" stroke="#1e56a0" stroke-width="2" d="M1178.56,-107.49C1202.09,-95.1 1245.47,-73.54 1284.79,-61 1321.29,-49.36 1364.89,-41.86 1393.29,-37.79"/>
<polygon fill="#1e56a0" stroke="#1e56a0" stroke-width="2" points="1393.48,-41.3 1402.92,-36.48 1392.53,-34.36 1393.48,-41.3"/>
</g>
<!-- output2 -->
<g id="node24" class="node">
<title>output2</title>
<ellipse fill="#a3c2ff" stroke="#a3c2ff" cx="1424.3" cy="-88" rx="18" ry="18"/>
<text text-anchor="start" x="1421.3" y="-85.4" font-family="Helvetica,sans-Serif" font-weight="bold" font-size="12.00">2</text>
</g>
<!-- fc&#45;&gt;output2 -->
<g id="edge71" class="edge">
<title>fc-&gt;output2</title>
<path fill="none" stroke="#1e56a0" stroke-width="2" d="M1180.76,-114.82C1226.34,-109.78 1339.28,-97.29 1393.42,-91.3"/>
<polygon fill="#1e56a0" stroke="#1e56a0" stroke-width="2" points="1393.58,-94.81 1403.13,-90.23 1392.81,-87.85 1393.58,-94.81"/>
</g>
<!-- output3 -->
<g id="node25" class="node">
<title>output3</title>
<ellipse fill="#a3c2ff" stroke="#a3c2ff" cx="1424.3" cy="-147" rx="22.63" ry="22.63"/>
<text text-anchor="start" x="1416.8" y="-142" font-family="Helvetica,sans-Serif" font-weight="bold" font-size="20.00">⋯</text>
</g>
<!-- fc&#45;&gt;output3 -->
<g id="edge72" class="edge">
<title>fc-&gt;output3</title>
<path fill="none" stroke="#1e56a0" stroke-width="2" d="M1180.76,-119.25C1225.11,-124.33 1333.2,-136.69 1388.89,-143.06"/>
<polygon fill="#1e56a0" stroke="#1e56a0" stroke-width="2" points="1388.19,-146.51 1398.52,-144.17 1388.98,-139.55 1388.19,-146.51"/>
</g>
<!-- output88 -->
<g id="node26" class="node">
<title>output88</title>
<ellipse fill="#a3c2ff" stroke="#a3c2ff" cx="1424.3" cy="-206" rx="18" ry="18"/>
<text text-anchor="start" x="1418.3" y="-203.4" font-family="Helvetica,sans-Serif" font-weight="bold" font-size="12.00">88</text>
</g>
<!-- fc&#45;&gt;output88 -->
<g id="edge73" class="edge">
<title>fc-&gt;output88</title>
<path fill="none" stroke="#1e56a0" stroke-width="2" d="M1178.02,-127.38C1201.28,-141.17 1244.76,-165.36 1284.79,-179 1321.26,-191.43 1365.19,-198.78 1393.65,-202.6"/>
<polygon fill="#1e56a0" stroke="#1e56a0" stroke-width="2" points="1392.92,-206.03 1403.28,-203.81 1393.8,-199.09 1392.92,-206.03"/>
</g>
</g>
</svg>